<svg id="Capa_1" enable-background="new 0 0 512 512" height="512" viewBox="0 0 512 512" width="512" xmlns="http://www.w3.org/2000/svg"><g><g><path d="m377.965 431.723c0-40.193-49.083-71.776-121.965-71.776-5.072 0-10.077-.842-15-.535-65.819 4.107-116.964 34.915-116.964 72.311s51.145 68.205 116.964 72.312c4.923.307 9.928-.535 15-.535 72.882 0 121.965-31.583 121.965-71.777z" fill="#ade4a4"/><path d="m256 358.947c-5.073 0-10.076.163-15 .471 65.818 4.108 116.965 34.91 116.965 72.306s-51.147 68.198-116.965 72.305c4.924.307 9.927.471 15 .471 72.882 0 131.965-32.583 131.965-72.777s-59.083-72.776-131.965-72.776z" fill="#8bd5a7"/><path d="m370.491 223.124-105.831 193.624c-3.849 6.667-13.472 6.667-17.321 0l-6.34-3.981-109.49-189.643c-52.784-91.424 7.733-204.653 109.491-214.877 4.907-.493 9.91.253 15 .253 110.658 0 169.82 118.791 114.491 214.624z" fill="#ea7bc1"/><path d="m256 7.5c-5.091 0-10.093.258-15 .751 101.757 10.225 162.274 123.449 109.491 214.873l-101.165 175.221-1.987 15.546c3.849 6.667 13.472 6.667 17.321 0l67.37-106.832 48.461-83.936c55.329-95.832-13.833-215.623-124.491-215.623z" fill="#ea5bb1"/><path d="m256 293.772c-28.311 0-54.538 4.919-76.03 13.288l61.03 105.707 6.34 7.981c3.849 6.667 13.472 6.667 17.321 0l40.931-97.988c-7.909-3.08 9.979-21.393.92-23.465-15.559-3.559-32.619-5.523-50.512-5.523z" fill="#ffe187"/><path d="m306.51 299.3-65.51 113.467 6.34 10.981c3.849 6.667 13.472 6.667 17.321 0l67.37-116.688c-7.909-3.08-16.463-5.687-25.521-7.76z" fill="#ffd26f"/><ellipse cx="256" cy="146.389" fill="#f9f6f9" rx="92.139" ry="92.139" transform="matrix(.707 -.707 .707 .707 -28.532 223.896)"/></g><g><path d="m222.231 180.158c1.464 1.465 3.384 2.197 5.303 2.197s3.839-.732 5.303-2.197l23.163-23.162 23.162 23.162c1.465 1.464 3.385 2.197 5.304 2.197s3.839-.732 5.304-2.197c2.929-2.929 2.929-7.678 0-10.606l-23.163-23.162 23.163-23.162c2.929-2.929 2.929-7.678 0-10.606-2.929-2.929-7.677-2.93-10.607 0l-23.163 23.16-23.163-23.162c-2.929-2.929-7.678-2.929-10.606 0-2.929 2.929-2.929 7.678 0 10.606l23.162 23.162-23.162 23.162c-2.929 2.93-2.929 7.679 0 10.608z"/><path d="m367.67 383.248c-14.649-11.204-33.976-19.876-56.335-25.343l27.168-47.056c.004-.007.008-.015.013-.022l12.366-21.419c2.071-3.587.842-8.174-2.745-10.245-3.59-2.073-8.176-.842-10.245 2.745l-9.206 15.945c-21.809-7.582-46.781-11.582-72.686-11.582s-50.876 4-72.686 11.582l-45.31-78.479c-24.628-42.658-24.628-93.592 0-136.249 24.629-42.658 68.739-68.125 117.996-68.125s93.367 25.467 117.995 68.125c24.628 42.657 24.628 93.592 0 136.249l-20.053 34.732c-2.071 3.587-.842 8.174 2.745 10.245 3.588 2.071 8.175.841 10.245-2.745l20.053-34.732c27.34-47.354 27.34-103.896 0-151.249-27.339-47.354-76.305-75.625-130.985-75.625-54.679 0-103.646 28.271-130.986 75.625s-27.34 103.895 0 151.249l75.654 131.037c-9.765 2.394-19.019 5.412-27.591 9.022-3.817 1.607-5.609 6.005-4.002 9.823 1.207 2.867 3.988 4.591 6.916 4.591.97 0 1.957-.189 2.907-.59 9.076-3.822 19.021-6.932 29.606-9.274l32.34 56.015c3.163 5.479 8.829 8.75 15.155 8.75 6.327 0 11.992-3.271 15.155-8.75l32.339-56.012c21.946 4.871 41.352 13.189 55.063 23.676 9.994 7.644 21.908 20.192 21.908 36.561 0 16.584-12.35 32.527-34.773 44.893-23.834 13.145-55.687 20.384-89.691 20.384s-65.857-7.239-89.691-20.383c-22.424-12.366-34.773-28.31-34.773-44.893 0-15.96 11.374-28.273 20.917-35.791 3.254-2.563 3.813-7.279 1.249-10.533-2.563-3.254-7.28-3.813-10.533-1.25-17.424 13.729-26.633 30.18-26.633 47.574 0 22.295 15.104 42.903 42.53 58.028 26.014 14.347 60.44 22.248 96.934 22.248s70.92-7.901 96.935-22.248c27.426-15.125 42.53-35.733 42.53-58.028 0-17.805-9.611-34.568-27.795-48.476zm-109.505 36.75c-.628 1.087-1.626 1.25-2.165 1.25s-1.537-.163-2.165-1.25l-62.879-108.91c19.585-6.438 41.877-9.816 65.044-9.816 23.168 0 45.46 3.379 65.045 9.816z"/><path d="m172.689 161.411c-.73-4.078-4.629-6.791-8.704-6.062-4.078.73-6.791 4.627-6.062 8.704 8.502 47.499 49.749 81.975 98.077 81.975 54.942 0 99.639-44.698 99.639-99.639s-44.697-99.639-99.639-99.639c-48.327 0-89.574 34.475-98.077 81.974-.729 4.077 1.984 7.974 6.062 8.704 4.08.726 7.974-1.984 8.704-6.061 7.221-40.339 42.258-69.617 83.311-69.617 46.67 0 84.639 37.969 84.639 84.639s-37.969 84.639-84.639 84.639c-41.053 0-76.091-29.278-83.311-69.617z"/></g></g></svg>