<svg id="Capa_1" enable-background="new 0 0 512.038 512.038" height="512" viewBox="0 0 512.038 512.038" width="512" xmlns="http://www.w3.org/2000/svg"><g><g><path d="m465.934 469.856c0 13.621-11.042 24.663-24.663 24.663h-370.504c-13.621 0-24.663-11.042-24.663-24.663v-245.87c0-6.711-7.302-13.141-2.512-17.842l195.866-192.238c9.398-8.517 23.724-8.517 33.122 0l195.866 192.238c4.79 4.701-2.512 11.131-2.512 17.842z" fill="#95c7f8"/><path d="m256.019 310.199c42.325 0 82.272-18.558 111.63 10.422l39.073-52.863 20-162.528c0-13.807-11.193-25-25-25h-301.406c-13.807 0-25 11.193-25 25v132.581l67.843 131.11c29.358-28.979 70.535-58.722 112.86-58.722z" fill="#ffe187"/><g><path d="m411.722 80.23h-30c13.807 0 25 11.193 25 25v188.953l30-56.372v-132.581c0-13.807-11.193-25-25-25z" fill="#ffd26f"/></g><path d="m465.934 479.856c0 12.886-12.354 13.713-24.953 14.818l-146.721-114.653 151.674-151.405c4.79 4.701 22.512 9.525 22.512 16.237z" fill="#f9f6f9"/><path d="m475.934 223.986c0-6.711-2.699-13.141-7.488-17.842l-22.512 22.472v251.24c0 5.563-1.845 10.693-4.953 14.818h6.326c12.599-1.104 28.627-1.932 28.627-14.818z" fill="#dedbec"/><path d="m36.104 479.856c0 12.886 25.625 11.157 38.224 12.262l143.449-112.096-174.185-173.878c-4.79 4.701-7.488 11.131-7.488 17.842z" fill="#f9f6f9"/><path d="m441.271 504.519c13.621 0 24.663-11.042 24.663-24.663l-83.067-140.771c-28.576-48.427-70.618-77.145-126.848-77.145-5.039 0-10.043-.761-15.001-.292-50.367 4.768-95.831 33.349-121.847 77.437l-83.067 140.771c0 13.621 11.042 24.663 24.663 24.663z" fill="#dedbec"/><path d="m392.867 339.085c-28.576-48.427-80.618-78.145-136.848-78.145-5.039 0-10.042.248-15 .718 50.366 4.768 95.833 33.34 121.848 77.427l77.472 131.289c8.529 14.454-1.038 33.263-17.799 34.113-.42.021-.844.032-1.269.032h30c13.621 0 24.663-11.042 24.663-24.663z" fill="#d1cfe7"/></g><g><path d="m140.237 153.62h231.563c4.142 0 7.5-3.358 7.5-7.5s-3.358-7.5-7.5-7.5h-231.563c-4.142 0-7.5 3.358-7.5 7.5s3.358 7.5 7.5 7.5z"/><path d="m371.8 211.039c4.142 0 7.5-3.358 7.5-7.5s-3.358-7.5-7.5-7.5h-231.563c-4.142 0-7.5 3.358-7.5 7.5s3.358 7.5 7.5 7.5z"/><path d="m188.753 352.627c-4.052-.846-8.027 1.755-8.873 5.811l-18.534 88.858c-.846 4.055 1.755 8.027 5.811 8.873.517.108 1.031.16 1.539.16 3.477 0 6.596-2.432 7.334-5.97l18.534-88.858c.846-4.056-1.756-8.028-5.811-8.874z"/><path d="m332.158 358.438c-.845-4.055-4.818-6.659-8.873-5.811-4.055.846-6.657 4.818-5.81 8.873l18.534 88.858c.738 3.539 3.857 5.97 7.334 5.97.507 0 1.023-.052 1.539-.16 4.055-.846 6.656-4.818 5.811-8.873z"/><path d="m133.883 306.892c-8.017 8.666-15.138 18.175-21.171 28.4l-69.108 117.115v-96.281c0-4.142-3.358-7.5-7.5-7.5s-7.5 3.358-7.5 7.5v123.749c0 17.735 14.428 32.163 32.163 32.163h390.504c17.735 0 32.163-14.428 32.163-32.163v-255.87c0-8.624-3.515-17.034-9.643-23.1-.013-.013-.024-.028-.037-.041-.007-.007-.015-.013-.022-.02-.011-.011-.022-.023-.033-.034l-29.477-28.931v-66.63c0-17.92-14.58-32.5-32.5-32.5h-68.501l-65.388-64.176c-.071-.07-.144-.138-.217-.205-12.312-11.157-30.882-11.157-43.194 0-.074.067-.146.135-.217.205l-65.388 64.176h-68.501c-17.92 0-32.5 14.58-32.5 32.5v66.63l-29.478 28.931c-.012.012-.024.025-.036.038-.006.006-.012.01-.018.016-.011.011-.02.023-.03.033-6.132 6.066-9.65 14.48-9.65 23.107v99.435c0 4.142 3.358 7.5 7.5 7.5s7.5-3.358 7.5-7.5v-99.435c0-2.096.404-4.161 1.13-6.104zm323.901-100.684-13.562 13.538v-26.849zm-389.968 13.538-13.562-13.538 13.562-13.311zm15-114.497c0-9.649 7.851-17.5 17.5-17.5h154.913c4.142 0 7.5-3.358 7.5-7.5s-3.358-7.5-7.5-7.5h-64.999l54.365-53.357c6.537-5.833 16.309-5.833 22.847 0l54.365 53.357h-33.891c-4.142 0-7.5 3.358-7.5 7.5s3.358 7.5 7.5 7.5h123.806c9.649 0 17.5 7.851 17.5 17.5v129.471l-61.738 61.629c-8.847-7.987-18.542-15.047-28.951-20.991-25.089-14.327-53.622-21.899-82.513-21.899s-57.424 7.573-82.513 21.899c-10.409 5.944-20.105 13.004-28.951 20.991l-61.74-61.629zm384.488 112.651c.726 1.943 1.13 4.008 1.13 6.104v228.402l-52.485-88.944c-2.106-3.568-6.705-4.751-10.271-2.648-3.567 2.105-4.753 6.704-2.648 10.271l65.297 110.657c-.932 8.564-8.441 15.296-17.057 15.296h-390.503c-8.615 0-16.125-6.731-17.057-15.296l81.921-138.827c27.1-45.926 77.061-74.457 130.388-74.457s103.289 28.53 130.388 74.457c2.106 3.567 6.704 4.753 10.271 2.648s4.753-6.704 2.648-10.271c-6.034-10.226-13.154-19.734-21.172-28.4z"/></g></g></svg>