<svg id="Layer_1" enable-background="new 0 0 256 256" height="512" viewBox="0 0 256 256" width="512" xmlns="http://www.w3.org/2000/svg"><g><g><g><g><g><g><circle cx="128" cy="128" fill="#e63950" r="99.007"/></g></g><g><path d="m34.99 130c-1.101 0-2-.9-2-2 0-11.44 2.029-22.64 6.02-33.28 3.85-10.27 9.43-19.74 16.57-28.15 14.39-16.95 34.3-28.37 56.04-32.16 1.09-.19 2.13.55 2.319 1.62.19 1.09-.54 2.13-1.63 2.32-43.639 7.61-75.319 45.31-75.319 89.64v.01c0 1.1-.9 2-2 2zm84.9-92.66c-1.03 0-1.899-.8-1.99-1.82-.09-1.1.721-2.08 1.82-2.17 1.1-.09 2.07.74 2.17 1.82.04.53-.12 1.05-.46 1.46-.35.41-.83.66-1.36.7-.06.01-.12.01-.18.01z" fill="#e8566f"/></g><g><path d="m192.831 53.169c15.062 17.37 24.177 40.036 24.177 64.831 0 54.68-44.327 99.007-99.007 99.007-24.795 0-47.461-9.115-64.831-24.177 18.153 20.935 44.946 34.177 74.831 34.177 54.68 0 99.007-44.327 99.007-99.007-.001-29.885-13.242-56.677-34.177-74.831z" fill="#d10028"/></g><g><path d="m195.459 55.541c16.468 17.681 26.548 41.391 26.548 67.46 0 54.68-44.327 99.007-99.007 99.007-26.068 0-49.779-10.08-67.459-26.548 18.075 19.406 43.847 31.548 72.459 31.548 54.68 0 99.007-44.327 99.007-99.007 0-28.613-12.141-54.385-31.548-72.46z" fill="#b7022d"/></g></g></g></g><g><g><path d="m171.532 147.358-19.543-19.543 19.173-19.172c6.699-6.699 6.699-17.56 0-24.258-6.699-6.699-17.56-6.699-24.258 0l-19.173 19.173-18.803-18.803c-6.699-6.699-17.56-6.699-24.258 0-6.699 6.699-6.699 17.56 0 24.258l18.803 18.803-19.173 19.172c-6.699 6.699-6.699 17.56 0 24.259 6.699 6.699 17.559 6.699 24.258 0l19.173-19.173 19.543 19.542c6.699 6.699 17.559 6.699 24.258 0s6.699-17.56 0-24.258z" fill="#ffa91a"/></g><g><g><path d="m171.699 147.358-19.543-19.543 19.173-19.172c6.699-6.699 6.699-17.56 0-24.258-1.931-1.931-4.212-3.287-6.635-4.105 2.02 5.984.664 12.856-4.104 17.624l-19.173 19.172 19.543 19.543c6.699 6.698 6.699 17.559 0 24.258-6.699 6.698-17.559 6.698-24.258 0l-19.543-19.542-19.173 19.173c-4.768 4.768-11.64 6.123-17.624 4.104.818 2.423 2.173 4.704 4.104 6.635 6.699 6.698 17.559 6.698 24.258 0l19.173-19.173 19.543 19.542c6.699 6.698 17.559 6.698 24.258 0 6.7-6.699 6.7-17.56.001-24.258z" fill="#f79219"/></g></g></g></g></svg>